PathFileType	4	(X/Y/Z)	OpenSim_Sub08_CSBaseline_Magnet.trc
DataRate	CameraRate	NumFrames	NumMarkers	Units	OrigDataRate	OrigDataStartFrame	OrigNumFrames
100	100	33	8	m	100	1366	5461
Frame#	Time	torso_imu_offset_imu	pelvis_imu_offset_imu	tibia_r_imu_offset_imu	femur_r_imu_offset_imu	tibia_l_imu_offset_imu	femur_l_imu_offset_imu	toes_r_imu_offset_imu	toes_l_imu_offset_imu
				X1	Y1	Z1	X2	Y2	Z2	X3	Y3	Z3	X4	Y4	Z4	X5	Y5	Z5	X6	Y6	Z6	X7	Y7	Z7	X8		Y8	Z8	

1366	13.65000000	-0.92895500	-0.18603500	0.07202100	-0.65161100	0.22094700	-0.65283200	-0.80737300	-0.25732400	-0.07641600	-0.84252900	-0.17309600	-0.09033200	-0.50732400	0.59204100	0.32031200	-0.49560500	0.06274400	0.43603500	-0.52197300	-0.02807600	-0.59423800	-0.80127000	-0.26538100	-0.31372100
1367	13.66000000	-0.93530300	-0.18823200	0.07006800	-0.65185500	0.22729500	-0.65307600	-0.80493200	-0.27197300	-0.06469700	-0.83837900	-0.17309600	-0.08129900	-0.49829100	0.59423800	0.32226600	-0.49169900	0.07592800	0.43139600	-0.52172900	-0.03833000	-0.59619100	-0.80566400	-0.26757800	-0.30249000
1368	13.67000000	-0.93750000	-0.19238300	0.07226600	-0.64965800	0.22949200	-0.65771500	-0.80419900	-0.28857400	-0.06860400	-0.84008800	-0.17944300	-0.07641600	-0.49194300	0.60327100	0.31958000	-0.48974600	0.08227500	0.42919900	-0.52758800	-0.04663100	-0.59204100	-0.80542000	-0.27197300	-0.28466800
1369	13.68000000	-0.93530300	-0.19238300	0.06347700	-0.64746100	0.22729500	-0.65527300	-0.79760700	-0.29907200	-0.06152300	-0.83178700	-0.17944300	-0.07861300	-0.48315400	0.60986300	0.32592800	-0.48974600	0.08447300	0.42919900	-0.52905300	-0.07104500	-0.58325200	-0.80322300	-0.27661100	-0.26660200
1370	13.69000000	-0.93335000	-0.18823200	0.05688500	-0.64526400	0.22534200	-0.65991200	-0.79736300	-0.30737300	-0.06787100	-0.83789100	-0.18969700	-0.06689500	-0.47876000	0.61425800	0.32104500	-0.49023400	0.09765600	0.42675800	-0.53930700	-0.07739300	-0.57495100	-0.80737300	-0.28320300	-0.25756800
1371	13.70000000	-0.93725600	-0.19458000	0.05468800	-0.64111300	0.22753900	-0.66699200	-0.79101600	-0.30737300	-0.06347700	-0.83764600	-0.19384800	-0.05981400	-0.46557600	0.62524400	0.32031200	-0.48364300	0.09765600	0.43335000	-0.56201200	-0.09228500	-0.55175800	-0.80712900	-0.28564500	-0.24169900
1372	13.71000000	-0.93286100	-0.19873000	0.04394500	-0.64331100	0.22949200	-0.66235400	-0.79565400	-0.29687500	-0.06152300	-0.83129900	-0.20019500	-0.05273400	-0.45678700	0.62963900	0.32226600	-0.48803700	0.09985400	0.42895500	-0.58032200	-0.10693400	-0.53100600	-0.80468800	-0.29443400	-0.22607400
1373	13.72000000	-0.93505900	-0.19653300	0.04614300	-0.63891600	0.23168900	-0.66015600	-0.79541000	-0.30542000	-0.05688500	-0.83715800	-0.21264600	-0.05688500	-0.44604500	0.64062500	0.31713900	-0.48632800	0.10839800	0.43115200	-0.59887700	-0.11547900	-0.50585900	-0.80004900	-0.29663100	-0.20800800
1374	13.73000000	-0.93725600	-0.19653300	0.03515600	-0.63501000	0.24438500	-0.66308600	-0.79101600	-0.31152300	-0.04760700	-0.83081100	-0.21679700	-0.06127900	-0.44213900	0.65600600	0.31396500	-0.48193400	0.11279300	0.43090800	-0.60473600	-0.12988300	-0.49536100	-0.80004900	-0.29467800	-0.18774400
1375	13.74000000	-0.93725600	-0.19873000	0.02417000	-0.63305700	0.24633800	-0.66064500	-0.78857400	-0.32202100	-0.02954100	-0.82836900	-0.22485400	-0.06103500	-0.42431600	0.66259800	0.30224600	-0.48413100	0.11499000	0.43090800	-0.61499000	-0.14038100	-0.47021500	-0.80200200	-0.30371100	-0.16088900
1376	13.75000000	-0.93505900	-0.20092800	0.02636700	-0.63134800	0.25903300	-0.65893600	-0.78173800	-0.33886700	-0.02002000	-0.82421900	-0.22705100	-0.06543000	-0.40673800	0.67382800	0.30615200	-0.47998000	0.11938500	0.42871100	-0.62329100	-0.13842800	-0.46191400	-0.79736300	-0.30810500	-0.12939500
1377	13.76000000	-0.93505900	-0.20092800	0.02197300	-0.62915000	0.26123000	-0.65893600	-0.77929700	-0.34936500	-0.00610400	-0.82202100	-0.23120100	-0.06298800	-0.39819300	0.68481400	0.29638700	-0.47998000	0.11718800	0.42651400	-0.64184600	-0.14502000	-0.44946300	-0.79296900	-0.30835000	-0.09790000
1378	13.77000000	-0.93261700	-0.20507800	0.01562500	-0.62744100	0.27368200	-0.65014600	-0.78125000	-0.35351600	0.00732400	-0.82397500	-0.23535200	-0.06274400	-0.38720700	0.69140600	0.29370100	-0.47534200	0.11523400	0.43774400	-0.64819300	-0.14721700	-0.43066400	-0.79711900	-0.31738300	-0.07080100
1379	13.78000000	-0.93701200	-0.20092800	0.00659200	-0.62573200	0.28418000	-0.65283200	-0.77490200	-0.35766600	0.01196300	-0.82006800	-0.22705100	-0.06298800	-0.36523400	0.70239300	0.28833000	-0.47314500	0.11303700	0.43335000	-0.64355500	-0.16357400	-0.42407200	-0.78588900	-0.31518600	-0.03930700
1380	13.79000000	-0.93066400	-0.20507800	0.00024400	-0.62988300	0.28418000	-0.64819300	-0.77441400	-0.36816400	0.02807600	-0.82617200	-0.23535200	-0.04907200	-0.35229500	0.71777300	0.27636700	-0.47729500	0.10644500	0.42431600	-0.64990200	-0.16357400	-0.41577100	-0.78369100	-0.31762700	-0.00341800
1381	13.80000000	-0.93481400	-0.20507800	-0.00195300	-0.63037100	0.29882800	-0.65112300	-0.76757800	-0.38476600	0.03759800	-0.81958000	-0.23950200	-0.04882800	-0.33007800	0.72460900	0.27343800	-0.47705100	0.09985400	0.42895500	-0.64355500	-0.16967800	-0.40942400	-0.77880900	-0.32226600	0.03710900
1382	13.81000000	-0.93920900	-0.20288100	-0.00878900	-0.63037100	0.30102500	-0.64868200	-0.76538100	-0.38916000	0.03759800	-0.81958000	-0.24145500	-0.04663100	-0.31030300	0.73779300	0.26367200	-0.47900400	0.09130900	0.42236300	-0.64965800	-0.17187500	-0.40747100	-0.76538100	-0.32251000	0.08422900
1383	13.82000000	-0.93261700	-0.20922900	-0.01269500	-0.63061500	0.30517600	-0.64428700	-0.75903300	-0.39526400	0.04003900	-0.81323200	-0.24755900	-0.04614300	-0.29272500	0.74877900	0.25390600	-0.48535200	0.08252000	0.42675800	-0.64306600	-0.18383800	-0.40722700	-0.76318400	-0.32275400	0.12695300
1384	13.83000000	-0.93676800	-0.20727500	-0.01293900	-0.62841800	0.30517600	-0.64892600	-0.75659200	-0.40576200	0.04052700	-0.81494100	-0.25805700	-0.04589800	-0.27319300	0.76220700	0.23730500	-0.48510700	0.07153300	0.41577100	-0.65136700	-0.18603500	-0.40502900	-0.74755900	-0.32275400	0.17431600
1385	13.84000000	-0.93676800	-0.20922900	-0.01953100	-0.62622100	0.30102500	-0.64868200	-0.75219700	-0.40771500	0.04492200	-0.81469700	-0.26635700	-0.03418000	-0.24658200	0.77099600	0.23657200	-0.50000000	0.05835000	0.40918000	-0.64502000	-0.18798800	-0.40502900	-0.73022500	-0.30542000	0.22583000
1386	13.85000000	-0.93676800	-0.21142600	-0.01489300	-0.62377900	0.29687500	-0.65332000	-0.75219700	-0.40795900	0.04956100	-0.81030300	-0.27246100	-0.03613300	-0.22876000	0.77539100	0.22485400	-0.50854500	0.04956100	0.40039100	-0.63647500	-0.19604500	-0.40063500	-0.71948200	-0.29248000	0.26855500
1387	13.86000000	-0.93872100	-0.21362300	-0.02368200	-0.62402300	0.29907200	-0.65576200	-0.74755900	-0.42236300	0.05444300	-0.80786100	-0.28491200	-0.02880900	-0.20654300	0.78222700	0.21997100	-0.51684600	0.03857400	0.38696300	-0.64062500	-0.19628900	-0.40283200	-0.70922900	-0.27270500	0.31347700
1388	13.87000000	-0.93676800	-0.20727500	-0.01733400	-0.61938500	0.29052700	-0.65527300	-0.74975600	-0.42456100	0.07006800	-0.80346700	-0.29541000	-0.02148400	-0.18896500	0.78881800	0.22168000	-0.52319300	0.02758800	0.38037100	-0.64257800	-0.20019500	-0.40063500	-0.69873000	-0.24877900	0.35620100
1389	13.88000000	-0.93872100	-0.21362300	-0.02368200	-0.61084000	0.29077100	-0.66455100	-0.74536100	-0.42456100	0.06567400	-0.79711900	-0.29736300	-0.01220700	-0.17114300	0.79760700	0.20971700	-0.53613300	0.02099600	0.36914100	-0.63647500	-0.19824200	-0.40478500	-0.68457000	-0.21362300	0.39868200
1390	13.89000000	-0.93457000	-0.20922900	-0.01733400	-0.60620100	0.28247100	-0.67602500	-0.73706100	-0.42675800	0.07910200	-0.80297900	-0.31396500	-0.00952100	-0.14892600	0.79760700	0.20947300	-0.54467800	0.01220700	0.35571300	-0.63208000	-0.20629900	-0.40454100	-0.67236300	-0.17846700	0.43237300
1391	13.90000000	-0.93042000	-0.20507800	-0.01513700	-0.60424800	0.28881800	-0.67846700	-0.73461900	-0.43505900	0.08837900	-0.79248000	-0.31396500	0.00195300	-0.14013700	0.80419900	0.20239300	-0.55102500	0.00122100	0.34033200	-0.63012700	-0.20214800	-0.40478500	-0.66918900	-0.14111300	0.45019500
1392	13.91000000	-0.93457000	-0.20922900	-0.00830100	-0.59960900	0.28247100	-0.68750000	-0.73437500	-0.44140600	0.09082000	-0.78808600	-0.32006800	0.00683600	-0.12231400	0.80664100	0.19067400	-0.56176800	-0.00756800	0.33813500	-0.63012700	-0.20410200	-0.40478500	-0.68139600	-0.11474600	0.45019500
1393	13.92000000	-0.93505900	-0.19873000	-0.01318400	-0.59765600	0.28247100	-0.68286100	-0.74682600	-0.44335900	0.09301800	-0.78564500	-0.33252000	0.01196300	-0.11792000	0.80664100	0.18408200	-0.57421900	-0.02514600	0.32031200	-0.61962900	-0.20605500	-0.40039100	-0.70019500	-0.09277300	0.43188500
1394	13.93000000	-0.93945300	-0.19653300	-0.00024400	-0.59960900	0.27832000	-0.69213900	-0.73022500	-0.44335900	0.08862300	-0.78540000	-0.34082000	0.01684600	-0.11596700	0.81323200	0.17480500	-0.57861300	-0.02954100	0.31152300	-0.61962900	-0.20800800	-0.40258800	-0.71655300	-0.07739300	0.41381800
1395	13.94000000	-0.93969700	-0.18823200	0.00170900	-0.59497100	0.27002000	-0.69409200	-0.73413100	-0.45385700	0.09130900	-0.78125000	-0.34301800	0.02832000	-0.10913100	0.80883800	0.15918000	-0.58276400	-0.03613300	0.30249000	-0.61743200	-0.20800800	-0.40454100	-0.73266600	-0.06640600	0.39819300
1396	13.95000000	-0.94384800	-0.18823200	0.00390600	-0.59277300	0.26586900	-0.70336900	-0.72973600	-0.45800800	0.09594700	-0.77661100	-0.35522500	0.02197300	-0.11816400	0.81543000	0.14331100	-0.59106400	-0.05127000	0.29370100	-0.60693400	-0.21606400	-0.41259800	-0.74658200	-0.04882800	0.37329100
1397	13.96000000	-0.93750000	-0.18603500	0.01049800	-0.59472700	0.25952100	-0.70068400	-0.72729500	-0.46435500	0.09838900	-0.77441400	-0.35937500	0.02905300	-0.12060500	0.81787100	0.12524400	-0.59936500	-0.06445300	0.28930700	-0.60693400	-0.21386700	-0.41479500	-0.76074200	-0.03564500	0.34838900
1398	13.97000000	-0.93994100	-0.17968800	0.01684600	-0.59668000	0.25537100	-0.70288100	-0.72509800	-0.47045900	0.09399400	-0.77636700	-0.36157200	0.03149400	-0.13647500	0.82006800	0.11206100	-0.60327100	-0.08203100	0.28271500	-0.60058600	-0.21997100	-0.41894500	-0.77465800	-0.02002000	0.33032200
